<!-- Icon from https://github.com/google/material-design-icons -->
<!-- Licensed under Apache License 2.0 -->
<!-- Copyright (c) Google Inc. -->
<svg width="14" height="14" viewBox="0 0 14 14" xmlns="http://www.w3.org/2000/svg"><path d="M7 2.64V1L4.75 3.18 7 5.36V3.73A3.33 3.33 0 0 1 10.38 7c0 .55-.15 1.07-.4 1.53l.82.8c.44-.68.7-1.47.7-2.33A4.43 4.43 0 0 0 7 2.64zm0 7.63A3.33 3.33 0 0 1 3.62 7c0-.55.15-1.07.4-1.53l-.82-.8c-.44.68-.7 1.47-.7 2.33A4.43 4.43 0 0 0 7 11.36V13l2.25-2.18L7 8.64v1.63z" fill="#FFF" fill-rule="nonzero"/></svg>
